<svg width="334" height="506" xmlns="http://www.w3.org/2000/svg" fill="none" preserveAspectRatio="xMinYMin slice">

 <g>
  <title>Layer 1</title>
  <path id="svg_1" fill="#EA3E72" d="m316.036,486.023c0.592,-2.831 0.62,-5.061 -0.621,-9.161c0.005,-0.049 -0.016,-0.072 -0.016,-0.072c-0.975,-3.184 -1.516,-4.504 -2.348,-7.641c-5.658,-0.924 -12.704,0.049 -17.273,2.262c0.735,4.385 0.684,5.514 -0.079,7.937a5.7,5.7 0 0 1 -0.483,1.159c-2.668,5.099 -11.322,8.502 -14.905,11.935c-0.998,0.889 -1.595,1.798 -1.623,2.72c-0.205,4.702 35.872,-2.34 37.348,-9.139z"/>
  <path id="svg_2" fill="#FFD357" d="m278.814,494.623a1.326,1.326 0 0 0 -0.096,0.532c-0.329,5.037 36.585,-2.009 37.989,-8.579l0.019,-0.028c0.14,-0.345 0.221,-0.73 0.275,-1.129c0.492,-3.354 -1.325,-7.927 -1.595,-8.571c0.019,-0.028 -0.012,-0.047 -0.012,-0.047c-9.319,6.053 -20.171,3.688 -20.171,3.688c-2.344,4.48 -9.268,7.659 -13.356,10.649c-1.647,1.057 -2.78,2.237 -3.053,3.485z"/>
  <path id="svg_3" fill="#2A2B3B" d="m278.814,494.623a1.326,1.326 0 0 0 -0.096,0.532c-0.329,5.037 36.585,-2.009 37.989,-8.579l0.019,-0.028c0.14,-0.345 0.221,-0.73 0.275,-1.129c-1.887,1.498 -5.835,4.14 -12.029,5.848c-8.018,2.218 -16.505,4.179 -26.158,3.356z"/>
  <path id="svg_4" fill="#EA3E72" d="m188.847,482.695c4.709,-1.849 13.154,-2.516 17.063,-6.286c0.317,-0.296 0.589,-0.613 0.823,-0.946c1.49,-2.06 1.896,-3.114 2.582,-7.508c5.035,-0.653 12.027,0.648 17.102,3.314c-0.203,3.24 -0.105,4.662 -0.185,7.991c0,0 0.012,0.032 -0.009,0.074c-0.093,3.384 -1.679,7.102 -2.594,9.038c-11.721,-0.977 -23.265,-2.661 -34.782,-5.677z"/>
  <path id="svg_5" fill="#FFD357" d="m184.516,486.786c-0.07,2.078 36.452,6.694 38.761,3.872l0.024,-0.024c0.142,-0.139 0.233,-0.303 0.349,-0.466c0.094,-0.163 0.187,-0.327 0.28,-0.513c1.514,-3.032 2.337,-9.647 2.291,-10.349c0.023,-0.023 0,-0.046 0,-0.046c-10.752,2.798 -20.291,-2.869 -20.291,-2.869c-3.64,3.524 -11.22,4.338 -16.047,5.88c-4.711,1.042 -5.343,4.422 -5.367,4.515z"/>
  <path id="svg_6" fill="#2A2B3B" d="m184.346,487.497c-0.068,2.076 36.242,6.872 38.549,4.049c0,0 0.637,-1.215 0.756,-1.378c-12.17,0.942 -29.771,-1.798 -39.018,-3.638c-0.047,0.095 -0.266,0.874 -0.287,0.967z"/>
  <path id="svg_7" fill="#EA3E72" d="m110.532,194.625c-0.084,-0.065 -0.175,-0.114 -0.256,-0.186c-1.188,-1.08 0.73,-3.384 1.921,-2.302c0.082,0.074 0.187,0.112 0.273,0.179c0.007,-0.842 0.863,-1.933 2.342,-1.289c0.429,0.186 6.462,2.901 12.099,2.085c-1.11,-0.67 -2.973,-1.759 -4.44,-2.069c-1.558,-0.329 -1.194,-2.818 0.368,-2.47c0.247,0.054 2.26,0.553 2.514,0.707c7.013,2.199 13.623,6.861 18.879,12.039a33.26,33.26 0 0 1 2.666,2.484c0.303,0.32 0.298,0.875 0.147,1.25c-0.758,1.927 -3.386,5.68 -4.713,7.254a1.333,1.333 0 0 1 -0.471,0.333c0.499,1.216 -1.227,2.396 -2.111,1.195c-2.353,-3.205 -7.465,-8.36 -7.517,-8.397c-7.015,-0.532 -13.802,-1.161 -20.255,-4.072c-1.303,-0.588 -0.702,-2.785 0.485,-2.724c0.012,-0.01 0.021,-0.021 0.035,-0.031c-0.021,-0.007 -0.039,-0.021 -0.056,-0.03c-0.396,-0.14 -2.096,-1.089 -2.572,-1.455c-0.905,-0.702 -0.166,-2.228 0.662,-2.501z"/>
  <path id="svg_8" fill="#2A2B3C" d="m125.833,196.358c-6.439,0 -13.431,-3.75 -13.5,-3.787a0.294,0.294 0 0 1 -0.119,-0.397a0.3,0.3 0 0 1 0.396,-0.119c0.068,0.04 6.936,3.72 13.223,3.72l0.187,0c0.159,0 0.289,0.129 0.292,0.289a0.294,0.294 0 0 1 -0.29,0.294l-0.189,0zm-1.065,3.221c-5.46,0 -13.998,-4.499 -14.371,-4.697a0.292,0.292 0 0 1 -0.122,-0.394a0.298,0.298 0 0 1 0.395,-0.122c0.091,0.049 8.785,4.625 14.102,4.625c0.171,0 0.336,-0.004 0.497,-0.014l0.019,0a0.293,0.293 0 0 1 0.019,0.584a8.714,8.714 0 0 1 -0.539,0.018zm-0.348,2.568l-0.004,0c-4.123,-0.07 -11.738,-3.104 -12.063,-3.232a0.294,0.294 0 0 1 -0.16,-0.381a0.296,0.296 0 0 1 0.38,-0.16c0.077,0.032 7.838,3.123 11.852,3.19a0.293,0.293 0 0 1 0.287,0.296a0.29,0.29 0 0 1 -0.292,0.287z"/>
  <path id="svg_9" fill="#3F4261" d="m254.837,181.881c-24.978,-11.514 -52.498,20.383 -66.617,37.129c-14.122,16.744 -6.155,30.362 3.02,28.947c28.789,-4.441 78.737,-59.095 63.597,-66.076z"/>
  <path id="svg_10" fill="#3F4261" d="m141.513,194.625c23.229,-2.309 52.234,16.135 60.091,25.437c7.857,9.301 -9.114,28.576 -13.121,27.864c-4.006,-0.711 -54.06,-17.551 -56.14,-36.944c-0.003,0.002 5.282,-15.97 9.17,-16.357z"/>
  <path id="svg_11" fill="#343751" d="m136.221,219.516s20.115,25.026 55.019,28.441c4.336,0.424 28.6,-12.779 28.6,-12.779l-3.45,-19.79s-16.869,23.519 -25.29,25.126c-8.419,1.609 -54.879,-20.998 -54.879,-20.998z"/>
  <path id="svg_12" fill="#4093F6" d="m238.884,481.149c7.508,-20.315 11.458,-50.003 12.027,-71.47c0.63,-23.692 9.64,-94.101 11.715,-105.926c1.467,-8.359 4.046,-17.492 0.749,-25.751c-6.211,-15.543 -45,-18.703 -45.711,-18.018c-11.011,10.603 -8.807,29.034 -10.376,43.739c-1.936,18.143 -3.333,36.459 -3.909,54.7c-0.546,17.295 -10.507,116.125 -9.501,115.144c14.214,5 34.528,11.414 45.006,7.582z"/>
  <path id="svg_13" fill="#2483E2" d="m243.759,294.142s-7.037,85.893 -10.535,101.102c-3.498,15.209 -10.28,72.347 -20.866,84.128c0,0 16.866,5.161 26.526,1.777c0,0 9.966,-28.375 11.678,-61.392c1.707,-33.017 14.42,-105.151 14.42,-105.151l-21.223,-20.464z"/>
  <path id="svg_14" fill="#2A2B3B" d="m245.202,301.038l13.86,49.542l-4.869,33.704l-8.991,-83.246z"/>
  <path id="svg_15" fill="#4093F6" d="m247.831,313.458c3.008,18.006 6.555,36.009 10.891,53.761c4.105,16.792 20.083,115.143 20.782,113.932c26.82,2.822 39.258,-1.749 46.982,-6.724c1.796,-21.6 -3.022,-49.74 -8.221,-70.591c-5.76,-22.973 -15.952,-93.223 -17.118,-105.188c-0.77,-8.003 -1.609,-22.463 -6.273,-29.95c-0.255,-0.42 -0.535,-0.816 -0.817,-1.189c-10.147,-13.318 -47.437,0.186 -47.952,1.026c-7.766,13.178 -0.7,30.346 1.726,44.923z"/>
  <path id="svg_16" fill="#2483E2" d="m280.647,285.001s12.71,26.705 12.244,39.044c-0.467,12.314 -3.382,61.807 5.012,81.632c8.398,19.824 10.947,75.47 10.947,75.47s9.231,-1.556 17.636,-6.725c1.796,-21.599 -3.022,-49.739 -8.221,-70.59c-5.76,-22.974 -15.952,-93.224 -17.118,-105.189c-0.77,-8.002 -1.609,-22.463 -6.274,-29.95l-14.226,3.756l0,12.552z"/>
  <path id="svg_17" fill="#2A2B3B" d="m209.212,278.496s43.817,11.702 90.062,3.459l-1.427,-10.96l-88.635,7.501z"/>
  <path id="svg_18" fill="#17171D" d="m226.477,186.094s-13.179,11.675 -20.243,30.917c-4.453,12.131 -6.115,28.028 -6.115,28.028l16.061,-8.686l10.297,-50.259z"/>
  <path id="svg_19" fill="#EDF1F4" d="m301.362,277.748s-10.57,-81.947 -34.862,-96.004c-15.64,-9.05 -39.773,-1.092 -45.161,10.787c-10.509,23.169 -16.638,85.121 -16.638,85.121s56.185,11.778 96.661,0.096z"/>
  <path id="svg_20" fill="#EA3E72" d="m239.477,167.237s0.282,10.341 0.594,12.426c0.096,0.637 9.632,0.175 10.857,-1.054c-0.947,-2.608 -1.437,-6.421 -1.437,-11.372c0,-4.686 -10.014,0 -10.014,0z"/>
  <path stroke="null" id="svg_21" fill="#EA3E72" d="m250.758,160.778s-2.172,12.616 -10.141,12.863c-7.967,0.245 -2.976,-17.175 -1.782,-17.656c1.201,-0.48 8.972,-2.176 11.923,4.793z"/>
  <path id="svg_22" fill="#17171D" d="m241.035,149.828c1.075,-0.539 2.25,-0.767 3.461,-0.536c1.457,0.277 2.374,1.394 3.785,1.544c3.153,0.338 4.687,2.372 4.349,5.056c0.08,0.075 0.164,0.145 0.229,0.252c1.154,1.961 1.896,4.03 0.739,5.908c1.264,2.267 -0.657,5.236 -2.113,7.085a1.025,1.025 0 0 1 -0.415,0.308c-0.406,0.768 -1.824,0.896 -2.194,-0.2c-0.936,-2.759 -0.122,-6.081 -1.157,-8.637c-0.497,-1.224 -1.591,-2.125 -2.41,-3.279c-1.226,0.385 -2.383,0.212 -3.486,-0.481c-2.624,1.39 -6.952,0.779 -7.682,-2.481c-0.968,-4.334 3.691,-5.659 6.894,-4.539z"/>
  <path id="svg_23" fill="#EA3E72" d="m246.653,163.076s1.21,-2.323 3.412,-1.992c2.204,0.331 2.71,5.579 -1.019,6.036c-3.727,0.457 -2.393,-4.044 -2.393,-4.044z"/>
  <path id="svg_24" fill="#17171D" d="m236.207,167.698c0.709,-0.191 1.607,-0.28 1.987,-0.767c0.648,-0.837 1.742,-0.704 1.749,0.219c0.826,1.178 2.755,1.775 3.391,1.001c0.352,-0.266 0.667,-0.572 0.942,-0.917c0.562,-0.66 1.022,-1.481 1.39,-2.269c0.702,-1.512 1.082,-3.16 1.428,-4.784c0.312,-1.467 2.56,-0.846 2.248,0.621c-0.45,2.117 -1.07,4.375 -2.169,6.309c0.03,0.163 0.035,0.345 -0.014,0.545c-0.826,3.485 -2.342,5.764 -6.068,6.347c-1.129,0.177 -2.976,-0.087 -3.97,-0.835c-1.129,-0.852 -1.187,-4.852 -0.914,-5.47z"/>
  <path id="svg_25" fill="#2A2B3C" d="m208.109,304.04c-0.478,0 -0.791,-0.023 -0.84,-0.026a0.293,0.293 0 0 1 -0.268,-0.312c0.011,-0.161 0.147,-0.252 0.312,-0.271c0.049,0.012 4.742,0.329 6.806,-1.74c1.725,-1.723 2.283,-15.904 2.353,-21.224a0.292,0.292 0 0 1 0.291,-0.287c0.138,-0.009 0.294,0.133 0.292,0.296c-0.012,0.791 -0.277,19.385 -2.521,21.628c-1.716,1.717 -4.905,1.936 -6.425,1.936zm35.085,163.572c-1.586,-0.016 -38.863,-0.492 -49.013,-7.454a0.29,0.29 0 0 1 -0.077,-0.406a0.288,0.288 0 0 1 0.406,-0.077c10.005,6.866 48.302,7.349 48.687,7.354a0.291,0.291 0 0 1 -0.003,0.583zm34.092,0.466a0.295,0.295 0 0 1 -0.291,-0.284a0.296,0.296 0 0 1 0.284,-0.299c21.368,-0.459 48.825,-7.787 49.1,-7.862a0.29,0.29 0 0 1 0.357,0.208a0.289,0.289 0 0 1 -0.208,0.356c-0.275,0.073 -27.797,7.42 -49.235,7.881l-0.007,0z"/>
  <path id="svg_26" fill="#3F4261" d="m229.402,264.638c0.583,1.795 11.217,4.827 24.651,6.507c14.737,1.866 32.86,2.096 44.825,-2.682c1.772,-0.7 3.405,-1.514 4.874,-2.449c0,0 -19.94,-76.198 -37.618,-85.294c-9.912,-5.106 -15.463,-2.89 -15.463,-2.89s-30.948,57.114 -21.269,86.808z"/>
  <path id="svg_27" fill="#343751" d="m260.816,254.28c-0.839,6.6 -3.638,12.338 -6.761,16.863c14.737,1.865 32.861,2.096 44.825,-2.683c1.117,-14.528 -6.717,-36.781 -6.717,-36.781l-33.14,-47.559s-10.124,10.895 -9.889,22.344c0.231,11.478 13.828,30.906 11.682,47.816z"/>
  <path id="svg_28" fill="#3F4261" d="m240.072,179.663s-21.984,28.602 -20.988,84.189c0.07,3.885 -14.219,1.774 -15.432,-1.887c-4.608,-13.908 8.706,-61.67 20.754,-75.179c4.667,-5.231 15.666,-7.123 15.666,-7.123z"/>
  <path id="svg_29" fill="#17171D" d="m250.674,177.837s4.585,4.124 4.221,7.543c-0.364,3.424 -10.798,5.929 -10.798,5.929s9.996,-0.423 12.108,-5.215c2.113,-4.798 -5.531,-8.257 -5.531,-8.257zm-10.603,1.826s-9.237,2.753 -10.905,7.415c-0.485,1.362 4.569,3.403 4.569,3.403s-6.712,-0.303 -6.61,-3.499c0.105,-3.195 12.946,-7.319 12.946,-7.319zm19.801,3.324s-9.378,11.671 -8.088,24.888c1.289,13.218 26.361,41.593 27.14,45.87c0.776,4.276 -0.325,18.881 -0.325,18.881l10.236,-24.679l-21.572,-28.993l-7.391,-35.967z"/>
  <path id="svg_30" fill="#3F4261" d="m259.023,181.809c-12.944,24.27 11.605,55.283 27.501,70.353c15.896,15.069 34.006,-7.032 32.539,-13.318c-1.469,-6.286 -52.197,-71.743 -60.04,-57.035z"/>
  <path id="svg_31" fill="#EA3E72" d="m209.158,265.759c-0.095,-0.049 -0.196,-0.077 -0.289,-0.133c-1.383,-0.816 0.03,-3.461 1.416,-2.642c0.095,0.056 0.205,0.07 0.303,0.119c-0.163,-0.826 0.452,-2.067 2.034,-1.733c0.454,0.096 6.912,1.535 12.269,-0.406c-1.222,-0.434 23.819,2.934 24.92,3.487c5.777,2.911 -0.903,10.388 -2.008,9.392c-2.953,-2.666 -15.148,-1.856 -15.206,-1.884c-6.978,0.9 -13.751,1.653 -20.659,0.109c-1.394,-0.312 -1.25,-2.586 -0.077,-2.768c0.012,-0.012 0.019,-0.026 0.031,-0.037c-0.024,-0.003 -0.045,-0.012 -0.063,-0.017c-0.415,-0.056 -2.276,-0.643 -2.811,-0.909c-1.033,-0.5 -0.618,-2.141 0.14,-2.578z"/>
  <path id="svg_32" fill="#2A2B3C" d="m220.173,264.77c-5.007,0 -9.608,-1.369 -9.669,-1.385a0.294,0.294 0 0 1 -0.196,-0.364a0.307,0.307 0 0 1 0.364,-0.196c0.077,0.024 7.689,2.284 13.881,0.931a0.289,0.289 0 0 1 0.345,0.224a0.29,0.29 0 0 1 -0.224,0.345c-1.457,0.32 -2.999,0.445 -4.501,0.445z"/>
  <path id="svg_33" fill="#AABFCE" d="m140.658,267.422l75.374,2.473l0.108,-3.301l-75.374,-2.473l-0.108,3.301z"/>
  <path id="svg_34" fill="#BED0E2" d="m216.192,269.836l34.237,-4.14l0.107,-3.3l-34.234,4.14l-0.11,3.3z"/>
  <path id="svg_35" fill="#DCE8EF" d="m250.536,262.396l-85.442,-5.315l-24.164,6.98l75.372,2.475l34.234,-4.14z"/>
  <path id="svg_36" fill="#DCE8EF" d="m143.055,264.131l74.924,1.663l-8.221,-45.828l-73.999,-2.47l-2.595,1.686l9.891,44.949z"/>
  <path id="svg_37" fill="#BED0E2" d="m141.228,264.071l75.074,2.465l-7.725,-44.088l-75.413,-3.266l8.064,44.889z"/>
  <path id="svg_38" fill="#3F4261" d="m236.797,260.248c4.028,-11.937 53.06,-26.038 65.232,-25.819c12.174,0.219 15.492,25.684 12.316,28.231c-3.176,2.547 -59.66,36.268 -71.685,20.664c0,0 -7.111,-19.377 -5.863,-23.076z"/>
  <path id="svg_39" fill="#343751" d="m270.684,183.066s44.988,37.647 52.33,59.794c7.341,22.148 -43.521,34.951 -46.952,39.254c0,0 41.121,-29.857 36.067,-40.935c-5.054,-11.079 -41.445,-58.113 -41.445,-58.113z"/>
  <path id="svg_40" fill="#3F4261" d="m47.763,427.822c0.059,5.439 5.943,7.592 10,5.432c3.322,-1.763 5.381,-5.42 7.627,-8.406c3.302,-4.387 7.025,-8.391 11.022,-12.051c7.006,-6.414 14.795,-11.769 22.82,-16.615c6.838,-4.131 14.626,-7.35 20.603,-12.877c4.396,-4.063 7.298,-9.682 6.579,-16.133c-0.653,-5.873 -4.652,-10.472 -10.289,-10.838c-7.456,-0.488 -14.549,5.329 -20.45,9.287c-7.357,4.94 -14.526,10.244 -21.066,16.364c-12.68,11.867 -26.853,45.238 -26.846,45.837z"/>
  <path id="svg_41" fill="#2A2B3C" d="m55.497,419.33c13.8,-23.183 34.267,-41.028 58.331,-50.801c1.044,-0.427 1.854,1.271 0.8,1.701c-23.805,9.669 -44.007,27.234 -57.66,50.175c-0.604,1.015 -2.077,-0.058 -1.471,-1.075z"/>
  <path id="svg_42" fill="#4093F6" d="m25.971,291.273c1.467,26.761 7.906,52.804 12.715,79.015c2.582,14.071 4.72,28.273 5.33,42.614c0.251,5.987 1.854,21.08 6.586,20.147c10.268,-2.022 13.288,-60.023 15.107,-90.784c0.835,-14.106 1.297,-28.38 0.71,-42.509c-0.458,-10.983 -2.365,-22.454 -9.527,-30.885c-5.511,-6.491 -14.999,-11.058 -22.593,-5.775c-8.738,6.08 -8.869,18.316 -8.328,28.177z"/>
  <path id="svg_43" fill="#2483E2" d="m42.99,276.878c-0.178,-1.185 1.525,-1.696 1.702,-0.502a710.232,710.232 0 0 1 6.817,140.82c-0.06,1.204 -1.83,1.213 -1.768,0c2.402,-46.889 0.152,-93.935 -6.752,-140.318l0.001,0z"/>
  <path id="svg_44" fill="#92CEFF" d="m0.693,338.148c0.135,8.336 2.845,16.695 6.066,24.208c7.255,16.921 18.706,31.311 26.433,47.964c2.274,4.901 4.072,9.934 5.513,15.172c0.718,2.615 1.423,5.782 3.839,7.233c1.933,1.157 7.153,-0.721 7.148,-1.822c-0.056,-25.683 -0.182,-52.172 -9.212,-76.417c-3.321,-8.912 -7.778,-17.369 -13.615,-24.704c-4.348,-5.462 -11.295,-11.848 -18.509,-8.571c-6.016,2.736 -7.764,10.638 -7.663,16.937z"/>
  <path id="svg_45" fill="#4093F6" d="m16.93,346.416c13.993,25.078 28.338,51.571 28.96,81.52c0.026,1.213 -1.744,1.213 -1.77,0c-0.615,-29.604 -14.89,-55.789 -28.716,-80.57c-0.585,-1.043 0.947,-1.99 1.526,-0.95z"/>
  <path id="svg_46" fill="#92CEFF" d="m86.464,321.213c-6.127,-3.277 -12.025,3.109 -15.717,8.571c-4.958,7.336 -8.743,15.793 -11.563,24.705c-7.668,24.244 -7.776,50.733 -7.822,76.417c-0.005,1.103 4.429,2.978 6.07,1.821c2.053,-1.451 2.652,-4.616 3.26,-7.232c1.223,-5.239 2.753,-10.272 4.682,-15.172c6.56,-16.656 16.286,-31.046 22.447,-47.965c2.736,-7.512 5.038,-15.872 5.152,-24.207c0.082,-6.302 -1.402,-14.204 -6.51,-16.938l0.001,0z"/>
  <path id="svg_47" fill="#4093F6" d="m79.18,346.416c-11.882,25.078 -24.063,51.571 -24.593,81.52c-0.02,1.213 1.481,1.213 1.505,0c0.522,-29.604 12.645,-55.789 24.387,-80.57c0.492,-1.043 -0.805,-1.99 -1.299,-0.95z"/>
  <path id="svg_48" fill="#BED0E2" d="m65.999,495.029l-30.92,0l-8.889,-70.864l48.692,0l-8.882,70.864l-0.001,0z"/>
  <path stroke="null" id="svg_50" fill="#BED0E2" d="m107.23971,182.97911c-1.41089,0 -2.75035,-0.41739 -3.63799,-1.40974l-17.94798,-19.94451l-60.41009,0c-10.226,0 -18.54265,-6.86468 -18.54265,-15.3039l0,-54.64804c0,-8.43802 8.31665,-15.3039 18.54119,-15.3039l106.27116,0c10.22455,0 18.54265,6.86589 18.54265,15.3039l0,54.64804c0,8.43922 -8.3181,15.3039 -18.54265,15.3039l-19.68244,0l0.02332,17.69157a4.49793,3.71201 0 0 1 -3.13368,3.58811a4.85356,4.0055 0 0 1 -1.4823,0.19847l0.00146,-0.12389zm-82.00043,-104.65186c-8.91277,0 -16.16688,5.9878 -16.16688,13.34325l0,54.64804c0,7.35545 7.25411,13.34205 16.16688,13.34205l61.60964,0l18.66508,20.7384c0.70399,0.77704 1.73446,0.842 2.45447,0.64232c0.73022,-0.19847 1.50562,-0.7578 1.50562,-1.72249l-0.03061,-19.65463l22.06403,0c8.91277,0 16.16688,-5.9866 16.16688,-13.34325l0,-54.64804c0,-7.35545 -7.25411,-13.34205 -16.16688,-13.34205l-106.26824,0l0,-0.00361z"/>
  <g id="svg_51" fill="#ABAFF1"/>
  <text style="cursor: move;" stroke-width="7" transform="matrix(1.41649 0 0 1.31367 -13.3278 -43.4048)" stroke="null" xml:space="preserve" text-anchor="start" font-family="'Podkova'" font-size="24" fill="#5656ff" id="svg_53" y="130.47754" x="26.35222">大前端</text>
 </g>
</svg>