<svg t="1698387689773" class="icon" viewBox="0 0 1024 1024" version="1.1" xmlns="http://www.w3.org/2000/svg" p-id="4853" width="200" height="200"><path d="M56.888889 512a455.111111 455.111111 0 1 1 910.222222 0A455.111111 455.111111 0 0 1 56.888889 512z m559.559111-84.764444c6.712889 0 13.312 0.568889 20.024889 1.137777C618.609778 345.713778 529.123556 284.444444 427.121778 284.444444 312.888889 284.444444 219.363556 361.187556 219.363556 458.808889c0 56.32 31.004444 102.627556 83.000888 138.524444l-20.764444 61.724445 72.647111-36.124445c25.941333 5.006222 46.876444 10.24 72.647111 10.24 6.428444 0 12.913778-0.227556 19.342222-0.910222a146.432 146.432 0 0 1-6.371555-42.837333c0-89.543111 77.824-162.190222 176.583111-162.190222h-0.056889z m-111.729778-55.637334c15.587556 0 25.941333 10.24 25.941334 25.6s-10.353778 25.6-25.941334 25.6c-15.701333 0-31.288889-10.24-31.288889-25.6 0.284444-15.36 15.872-25.6 31.288889-25.6z m-145.351111 51.313778c-15.644444 0-31.288889-10.24-31.288889-25.6 0-15.416889 15.644444-25.6 31.288889-25.6 15.587556 0 25.941333 10.183111 25.941333 25.6 0 15.189333-10.24 25.6-25.941333 25.6z m446.520889 164.124444c0-81.92-83.000889-148.650667-176.355556-148.650666-98.816 0-176.583111 66.787556-176.583111 148.650666 0 82.204444 77.767111 148.764444 176.583111 148.764445 20.707556 0 41.642667-5.233778 62.350223-10.24l57.059555 30.890667-15.644444-51.313778c41.528889-30.890667 72.590222-71.964444 72.590222-118.101334z m-233.528889-25.6c-10.410667 0-20.707556-10.24-20.707555-20.48 0-10.183111 10.296889-20.366222 20.707555-20.366222 15.644444 0 25.941333 10.24 25.941333 20.423111 0 10.24-10.410667 20.423111-25.941333 20.423111z m114.232889 0c-10.353778 0-20.650667-10.24-20.650667-20.48 0-10.183111 10.296889-20.366222 20.707556-20.366222 15.530667 0 25.941333 10.24 25.941333 20.423111 0 10.24-10.638222 20.423111-25.941333 20.423111h-0.056889z" fill="#1afa29" p-id="4854"></path></svg>
